<svg width="472" height="343" viewBox="0 0 472 343" fill="none" xmlns="http://www.w3.org/2000/svg">
<g clip-path="url(#clip0_13_53)">
<path d="M410.163 268.958C410.058 268.802 409.954 268.645 409.851 268.488C409.747 268.332 409.644 268.174 409.541 268.016C409.439 267.859 409.337 267.701 409.235 267.542C409.134 267.384 409.033 267.224 408.932 267.064C408.763 262.467 408.761 257.912 408.925 253.396C409.085 248.913 409.408 244.484 409.895 240.109C410.376 235.766 411.014 231.491 411.808 227.282C412.595 223.106 413.533 219.008 414.623 214.99C414.747 214.526 414.873 214.065 415.002 213.605C415.13 213.146 415.262 212.689 415.395 212.235C415.528 211.779 415.663 211.326 415.8 210.874C415.938 210.422 416.077 209.972 416.219 209.524C417.268 206.168 418.423 202.895 419.684 199.703C420.935 196.534 422.288 193.453 423.74 190.459C425.181 187.486 426.717 184.605 428.349 181.816C429.969 179.047 431.68 176.375 433.48 173.8L433.764 173.395L434.049 172.994L434.334 172.594L434.621 172.197L434.827 171.911L435.036 171.627C435.106 171.533 435.176 171.439 435.246 171.345C435.317 171.251 435.388 171.159 435.461 171.067L435.632 170.957L435.802 170.848L435.971 170.74L436.14 170.632L436.15 170.628L436.161 170.622L436.172 170.616L436.182 170.611L436.25 170.568L436.317 170.523L436.383 170.479L436.448 170.435L436.742 170.25L437.035 170.068L437.328 169.887L437.618 169.703L437.397 169.573L436.839 169.248L436.843 169.245C436.891 169.269 436.939 169.294 436.986 169.321C437.033 169.348 437.08 169.373 437.128 169.398C437.175 169.424 437.223 169.45 437.269 169.476C437.316 169.502 437.363 169.529 437.41 169.556L437.464 169.583L437.518 169.611L437.573 169.638C437.592 169.647 437.61 169.657 437.627 169.669C437.642 169.679 437.658 169.687 437.675 169.693L437.723 169.717L437.771 169.741L437.819 169.765C439.848 170.855 441.882 171.963 443.891 173.124C445.899 174.285 447.876 175.495 449.8 176.797C451.718 178.089 453.578 179.499 455.37 181.02C457.157 182.533 458.849 184.196 460.432 185.996C462.102 187.91 463.596 190.024 464.889 192.304C466.167 194.544 467.219 196.952 468.022 199.478C468.794 201.882 469.255 204.409 469.387 206.973C469.515 209.44 469.219 211.912 468.517 214.242C468.422 214.546 468.32 214.846 468.21 215.141C468.1 215.436 467.983 215.727 467.859 216.014C467.734 216.3 467.603 216.581 467.463 216.858C467.324 217.134 467.178 217.405 467.025 217.671C466.961 217.782 466.896 217.892 466.83 218.001C466.763 218.11 466.696 218.218 466.628 218.325C466.559 218.432 466.49 218.539 466.42 218.645C466.35 218.751 466.279 218.857 466.207 218.961C464.878 220.92 463.189 222.502 461.266 223.589C459.333 224.673 457.232 225.284 455.09 225.385C452.84 225.495 450.592 225.113 448.462 224.257C446.177 223.342 444.053 221.945 442.196 220.135C441.555 219.513 440.946 218.845 440.375 218.135C439.809 217.431 439.281 216.687 438.794 215.906C438.311 215.132 437.87 214.323 437.474 213.484C437.08 212.651 436.734 211.79 436.436 210.904C436.296 213.654 436.66 216.408 437.503 218.98C438.394 221.683 439.604 224.226 441.098 226.534C442.676 228.992 444.427 231.29 446.333 233.404C448.251 235.562 450.29 237.584 452.302 239.446C454.315 241.309 456.399 243.213 458.417 245.2C460.433 247.153 462.351 249.239 464.164 251.449C465.922 253.584 467.477 255.937 468.801 258.465C470.103 260.961 471.043 263.693 471.585 266.548C472.166 269.659 472.137 272.884 471.5 275.979C471.19 277.485 470.749 278.95 470.184 280.35C469.614 281.761 468.931 283.106 468.144 284.366L468.07 284.481L467.997 284.596L467.921 284.711L467.845 284.824C465.925 287.767 463.515 290.221 460.761 292.037C459.374 292.951 457.913 293.699 456.399 294.271C454.849 294.856 453.254 295.258 451.636 295.473C448.558 295.805 445.455 295.597 442.43 294.855C439.315 294.09 436.287 292.901 433.406 291.314C430.428 289.679 427.581 287.734 424.9 285.502C422.195 283.257 419.634 280.783 417.238 278.099C416.602 277.388 415.977 276.663 415.363 275.925C414.749 275.188 414.147 274.438 413.557 273.675C412.966 272.913 412.388 272.138 411.823 271.353C411.258 270.567 410.705 269.769 410.163 268.958Z" fill="#F2F2F2"/>
<path d="M459.646 215.703C457.744 214.545 455.915 213.229 454.173 211.765C450.694 208.841 447.586 205.353 444.942 201.406C443.63 199.447 442.443 197.379 441.388 195.218C440.508 193.392 439.727 191.503 439.049 189.562C438.388 187.669 437.832 185.727 437.384 183.749C436.947 181.817 436.622 179.853 436.409 177.87C436.201 175.928 436.11 173.97 436.136 172.013C436.139 171.902 436.141 171.793 436.143 171.684C436.145 171.575 436.147 171.465 436.149 171.355C436.152 171.244 436.155 171.136 436.16 171.028L436.174 170.703C436.094 170.776 436.014 170.851 435.935 170.926L435.697 171.153L435.46 171.382L435.224 171.612L435.072 171.759L434.92 171.907L434.769 172.057L434.619 172.206L434.825 171.922L435.037 171.628C435.107 171.533 435.177 171.439 435.248 171.346C435.318 171.252 435.39 171.159 435.462 171.068L435.633 170.958L435.803 170.849L435.969 170.741L436.138 170.633L436.148 170.629L436.159 170.623L436.17 170.617L436.18 170.612L436.248 170.568L436.316 170.525L436.382 170.48L436.446 170.436L436.74 170.251L437.033 170.069L437.326 169.888L437.619 169.706L437.39 169.572L436.833 169.247L436.837 169.244C436.885 169.268 436.932 169.293 436.979 169.32C437.026 169.346 437.074 169.372 437.121 169.397C437.169 169.423 437.216 169.449 437.263 169.475C437.309 169.501 437.356 169.528 437.404 169.555L437.457 169.582L437.512 169.609L437.567 169.637C437.585 169.645 437.603 169.656 437.62 169.667L437.615 169.771L437.609 169.868L437.604 169.965L437.599 170.063C437.394 173.36 437.54 176.675 438.035 179.929C438.544 183.28 439.38 186.55 440.526 189.677C441.71 192.913 443.19 195.989 444.94 198.851C446.748 201.811 448.82 204.537 451.12 206.983C453.435 209.411 455.961 211.548 458.655 213.36C459.986 214.254 461.357 215.065 462.761 215.789C464.153 216.506 465.577 217.134 467.028 217.669C466.964 217.78 466.898 217.89 466.832 217.999C466.765 218.108 466.698 218.216 466.63 218.323C466.562 218.43 466.492 218.537 466.422 218.643C466.352 218.749 466.281 218.855 466.21 218.959C465.65 218.742 465.094 218.511 464.54 218.266C463.987 218.021 463.436 217.763 462.889 217.491C462.341 217.219 461.797 216.934 461.257 216.635C460.716 216.337 460.179 216.026 459.646 215.703Z" fill="white"/>
<path d="M421.994 240.346C421.371 239.255 420.783 238.145 420.23 237.014C419.677 235.883 419.161 234.736 418.68 233.574C418.2 232.411 417.756 231.234 417.349 230.042C416.942 228.85 416.573 227.648 416.243 226.435C416.074 225.792 415.919 225.146 415.776 224.498C415.633 223.85 415.504 223.202 415.389 222.552C415.273 221.902 415.17 221.251 415.081 220.598C414.991 219.945 414.915 219.293 414.853 218.641C414.822 218.337 414.794 218.033 414.769 217.728C414.744 217.423 414.722 217.119 414.702 216.814C414.683 216.51 414.667 216.205 414.653 215.901C414.64 215.597 414.629 215.294 414.621 214.99C414.745 214.527 414.871 214.066 415 213.606C415.128 213.146 415.259 212.689 415.392 212.233C415.525 211.777 415.66 211.323 415.797 210.872C415.935 210.42 416.074 209.97 416.217 209.521C416.186 209.897 416.159 210.274 416.137 210.651C416.115 211.029 416.098 211.407 416.085 211.787C416.072 212.167 416.063 212.548 416.059 212.93C416.056 213.311 416.056 213.694 416.061 214.077C416.061 214.286 416.062 214.495 416.066 214.703C416.07 214.912 416.074 215.121 416.08 215.33C416.087 215.539 416.094 215.747 416.104 215.956C416.113 216.165 416.124 216.374 416.135 216.583C416.272 218.926 416.586 221.25 417.072 223.529C417.565 225.835 418.207 228.093 418.994 230.284C419.796 232.517 420.721 234.687 421.763 236.779C422.822 238.908 423.981 240.967 425.233 242.947C426.581 245.084 428.005 247.165 429.507 249.19C431.009 251.215 432.567 253.184 434.183 255.098C435.8 257.01 437.464 258.863 439.176 260.657C440.888 262.45 442.628 264.182 444.397 265.852C446.209 267.566 448.057 269.216 449.942 270.8C451.827 272.384 453.742 273.899 455.689 275.344C457.634 276.789 459.609 278.163 461.613 279.467C463.617 280.771 465.644 282.001 467.693 283.155C467.787 283.209 467.872 283.283 467.943 283.373C468.014 283.46 468.07 283.562 468.111 283.672C468.152 283.781 468.176 283.897 468.182 284.016C468.188 284.135 468.175 284.255 468.142 284.368C468.132 284.417 468.117 284.465 468.099 284.51C468.08 284.555 468.058 284.597 468.033 284.636C468.008 284.674 467.979 284.71 467.948 284.742C467.916 284.773 467.882 284.801 467.846 284.823C467.807 284.844 467.767 284.859 467.725 284.868C467.684 284.876 467.641 284.879 467.599 284.875C467.556 284.872 467.513 284.863 467.472 284.848C467.429 284.833 467.388 284.812 467.349 284.786C467.096 284.644 466.843 284.501 466.59 284.357C466.337 284.213 466.084 284.069 465.832 283.924C465.58 283.778 465.328 283.632 465.077 283.483C464.826 283.335 464.575 283.185 464.324 283.033C462.235 281.775 460.174 280.441 458.141 279.032C456.108 277.623 454.106 276.141 452.134 274.585C450.162 273.029 448.227 271.403 446.327 269.708C444.427 268.013 442.567 266.25 440.747 264.42C438.989 262.658 437.254 260.836 435.56 258.953C433.866 257.069 432.215 255.125 430.625 253.119C429.035 251.113 427.508 249.046 426.062 246.917C424.616 244.788 423.255 242.598 421.994 240.346Z" fill="white"/>
<path d="M461.343 65.3169L459.846 65.5448L469.878 21.3933C470.617 18.4452 470.738 15.3311 470.229 12.3167C469.788 9.85356 468.696 7.616 467.109 5.92148C465.447 4.22719 463.41 3.11859 461.233 2.72359C458.582 2.24218 455.876 2.38427 453.272 3.14158L385.094 21.3487C382.714 22.0258 380.436 23.1245 378.339 24.6071C376.058 26.1975 373.937 28.0834 372.016 30.2293C370.039 32.4175 368.264 34.8441 366.722 37.469C365.215 40.0096 363.986 42.7624 363.065 45.6626L291.73 275.742C290.544 279.525 289.774 283.47 289.437 287.481C289.125 291.042 289.272 294.638 289.874 298.148C290.377 301.197 291.426 304.086 292.953 306.624C294.353 308.932 296.326 310.677 298.603 311.622L370.638 340.702C373.838 341.979 377.273 342.219 380.58 341.396C384.115 340.493 387.44 338.698 390.323 336.135C393.56 333.282 396.344 329.784 398.547 325.799C400.987 321.422 402.81 316.612 403.947 311.555L452.241 99.0087L453.756 98.8663L461.343 65.3169Z" fill="#2F2E41"/>
<path d="M456.131 62.8725L454.635 63.1005L464.667 18.949C465.406 16.0008 465.526 12.8868 465.018 9.87232C464.576 7.40923 463.485 5.17166 461.898 3.47714C460.235 1.78285 458.198 0.674251 456.022 0.279255C453.371 -0.202154 450.665 -0.0600689 448.061 0.697242L379.882 18.9044C377.503 19.5814 375.225 20.6802 373.128 22.1628C370.847 23.7532 368.726 25.639 366.804 27.7849C364.827 29.9731 363.053 32.3998 361.51 35.0246C360.003 37.5653 358.775 40.3181 357.854 43.2183L286.519 273.297C285.333 277.081 284.562 281.025 284.226 285.037C283.914 288.598 284.061 292.194 284.663 295.703C285.165 298.753 286.215 301.642 287.742 304.18C289.142 306.487 291.115 308.233 293.392 309.178L365.427 338.257C368.627 339.535 372.062 339.775 375.369 338.952C378.904 338.049 382.228 336.253 385.111 333.691C388.349 330.838 391.133 327.34 393.336 323.355C395.776 318.977 397.599 314.168 398.735 309.11L447.03 96.5644L448.545 96.422L456.131 62.8725Z" fill="#3F3D56"/>
<path d="M447.458 6.4582L437.436 9.03276C437.546 10.0496 437.459 11.0822 437.183 12.0547C436.871 13.1921 436.418 14.2698 435.839 15.2532C434.536 17.4857 432.797 19.3208 430.767 20.6058C430.523 20.7574 430.281 20.8973 430.04 21.0256C429.798 21.154 429.557 21.2705 429.315 21.3752C429.075 21.4799 428.836 21.5724 428.599 21.6526C428.361 21.7329 428.127 21.8005 427.895 21.8555L388.711 31.1595C387.984 31.3576 387.227 31.3475 386.504 31.1302C385.922 30.947 385.409 30.5414 385.045 29.9777C384.679 29.3723 384.472 28.6541 384.45 27.9121C384.42 26.9657 384.548 26.0214 384.826 25.1322C384.895 24.8923 384.974 24.6507 385.063 24.4075C385.152 24.1642 385.249 23.921 385.354 23.6778C385.458 23.4334 385.572 23.1901 385.695 22.9482C385.819 22.7062 385.949 22.4644 386.086 22.2228L378.666 24.1288C376.88 24.6202 375.168 25.4324 373.593 26.5365C371.871 27.7257 370.27 29.1403 368.821 30.7531C367.327 32.4009 365.987 34.2307 364.824 36.2115C363.69 38.1256 362.768 40.201 362.08 42.3879L290.879 274.466C289.993 277.318 289.425 280.292 289.187 283.314C288.968 285.982 289.097 288.673 289.571 291.295C289.966 293.561 290.773 295.701 291.936 297.569C293.002 299.263 294.488 300.53 296.192 301.195L368.757 328.84C371.151 329.741 373.707 329.875 376.16 329.23C378.773 328.528 381.227 327.178 383.357 325.27C385.74 323.155 387.791 320.57 389.419 317.632C391.221 314.404 392.573 310.86 393.425 307.134L459.727 20.233C460.283 18.043 460.386 15.7289 460.027 13.4828C459.716 11.6421 458.922 9.96144 457.757 8.67528C456.535 7.38938 455.027 6.53716 453.409 6.21803C451.432 5.82869 449.408 5.91037 447.458 6.4582Z" fill="white"/>
<path d="M408.543 116.373H264.191V59.012H408.543V116.373Z" fill="white"/>
<path d="M366.34 136.619H224.866V217.037H366.34V136.619Z" fill="white"/>
<path d="M247.849 175.235C253.501 175.235 258.083 169.863 258.083 163.235C258.083 156.608 253.501 151.235 247.849 151.235C242.198 151.235 237.616 156.608 237.616 163.235C237.616 169.863 242.198 175.235 247.849 175.235Z" fill="#091736"/>
<path d="M271.483 155.235C271.031 155.235 270.597 155.446 270.277 155.821C269.958 156.196 269.778 156.705 269.778 157.235C269.778 157.766 269.958 158.275 270.277 158.65C270.597 159.025 271.031 159.235 271.483 159.235H351.888C352.34 159.234 352.773 159.023 353.092 158.648C353.411 158.273 353.59 157.765 353.59 157.235C353.59 156.706 353.411 156.198 353.092 155.823C352.773 155.448 352.34 155.237 351.888 155.235H271.483Z" fill="#E6E6E6"/>
<path d="M271.483 167.235C271.259 167.234 271.037 167.285 270.83 167.385C270.622 167.485 270.434 167.632 270.275 167.817C270.116 168.003 269.99 168.223 269.903 168.465C269.817 168.708 269.773 168.968 269.772 169.231C269.772 169.494 269.815 169.754 269.901 169.997C269.986 170.24 270.112 170.461 270.27 170.648C270.428 170.834 270.616 170.981 270.823 171.082C271.03 171.183 271.252 171.235 271.476 171.235H306.082C306.306 171.235 306.528 171.184 306.735 171.083C306.942 170.983 307.13 170.835 307.288 170.65C307.446 170.464 307.572 170.243 307.658 170.001C307.743 169.758 307.787 169.498 307.787 169.235C307.787 168.973 307.743 168.713 307.658 168.47C307.572 168.227 307.446 168.007 307.288 167.821C307.13 167.635 306.942 167.488 306.735 167.388C306.528 167.287 306.306 167.235 306.082 167.235H271.483Z" fill="#E6E6E6"/>
<path d="M240 186.42C238.703 186.42 237.647 187.317 237.647 188.42C237.647 189.523 238.703 190.42 240 190.42H350.934C352.231 190.42 353.287 189.523 353.287 188.42C353.287 187.317 352.231 186.42 350.934 186.42H240Z" fill="#E6E6E6"/>
<path d="M240 198.42C238.703 198.42 237.647 199.317 237.647 200.42C237.647 201.523 238.703 202.42 240 202.42H325.399C326.696 202.42 327.752 201.523 327.752 200.42C327.752 199.317 326.696 198.42 325.399 198.42H240Z" fill="#E6E6E6"/>
<path d="M367.779 218.724H223.427V134.931H367.779V218.724ZM226.305 215.35H364.901V138.306H226.305V215.35Z" fill="#E6E6E6"/>
<path d="M288.613 99.316C294.265 99.316 298.846 93.9434 298.846 87.316C298.846 80.6885 294.265 75.3159 288.613 75.3159C282.961 75.3159 278.38 80.6885 278.38 87.316C278.38 93.9434 282.961 99.316 288.613 99.316Z" fill="#091736"/>
<path d="M312.247 79.3159C311.795 79.3159 311.361 79.5266 311.041 79.9017C310.721 80.2768 310.542 80.7855 310.542 81.3159C310.542 81.8464 310.721 82.3551 311.041 82.7301C311.361 83.1052 311.795 83.3159 312.247 83.3159H392.652C393.104 83.3146 393.536 83.1033 393.855 82.7284C394.174 82.3535 394.353 81.8455 394.353 81.3159C394.353 80.7863 394.174 80.2784 393.855 79.9035C393.536 79.5285 393.104 79.3172 392.652 79.3159H312.247Z" fill="#E6E6E6"/>
<path d="M312.247 91.3159C312.023 91.315 311.801 91.366 311.594 91.4658C311.386 91.5657 311.198 91.7125 311.039 91.8978C310.88 92.0832 310.754 92.3035 310.667 92.5461C310.581 92.7887 310.536 93.0488 310.536 93.3117C310.535 93.5746 310.579 93.835 310.665 94.078C310.75 94.321 310.875 94.5419 311.034 94.7281C311.192 94.9142 311.38 95.0619 311.587 95.1628C311.794 95.2637 312.016 95.3157 312.24 95.316H375.508C375.96 95.316 376.394 95.1052 376.714 94.7302C377.034 94.3551 377.214 93.8464 377.214 93.3159C377.214 92.7855 377.034 92.2768 376.714 91.9017C376.394 91.5266 375.96 91.3159 375.508 91.3159H312.247Z" fill="#E6E6E6"/>
<path d="M408.543 116.373H264.191V59.012H408.543V116.373ZM267.068 112.999H405.665V62.3862H267.068V112.999Z" fill="#E6E6E6"/>
<path d="M124.908 334.876H132.184L135.646 301.963L124.906 301.964L124.908 334.876Z" fill="#FFB6B6"/>
<path d="M146.218 342.799L123.349 342.8L123.348 332.439L138.46 332.438C140.517 332.438 142.491 333.396 143.946 335.102C145.401 336.808 146.218 339.122 146.218 341.535L146.218 342.799Z" fill="#2F2E41"/>
<path d="M52.1445 323.818L58.5211 327.928L75.0775 301.043L65.6664 294.976L52.1445 323.818Z" fill="#FFB6B6"/>
<path d="M67.5635 342.8L47.5229 329.88L51.7798 320.8L65.0221 329.337C66.8251 330.5 68.1605 332.454 68.7345 334.771C69.3085 337.088 69.0741 339.578 68.0828 341.692L67.5635 342.8Z" fill="#2F2E41"/>
<path d="M124.568 316.608C123.919 316.607 123.293 316.33 122.806 315.828C122.319 315.326 122.005 314.633 121.922 313.879L112.821 231.646C112.781 231.283 112.644 230.943 112.429 230.676C112.215 230.409 111.934 230.229 111.626 230.161C111.319 230.092 111.001 230.139 110.718 230.296C110.435 230.452 110.201 230.709 110.05 231.03L72.1237 311.719C71.8107 312.378 71.3066 312.883 70.7028 313.143C70.0991 313.403 69.4359 313.4 68.8339 313.135L60.567 309.441C60.2345 309.293 59.9306 309.068 59.6733 308.78C59.416 308.491 59.2103 308.146 59.0684 307.763C58.9266 307.381 58.8513 306.969 58.8471 306.551C58.8429 306.134 58.9099 305.72 59.044 305.334L85.3167 229.651C85.3832 229.459 85.4283 229.258 85.4509 229.052C89.0094 196.755 98.0633 180.33 100.753 176.066C100.95 175.752 101.079 175.388 101.13 175.004C101.182 174.62 101.153 174.226 101.048 173.858L100.678 172.557C100.53 172.04 100.5 171.488 100.59 170.953C100.68 170.419 100.888 169.922 101.192 169.51C110.885 156.563 127.78 163.628 127.95 163.701L128.034 163.738L128.088 163.822C147.032 194.289 140.027 293.242 138.431 312.769C138.371 313.503 138.092 314.188 137.643 314.704C137.194 315.22 136.604 315.533 135.977 315.588L124.775 316.599C124.706 316.605 124.636 316.608 124.568 316.608Z" fill="#2F2E41"/>
<path d="M119.431 88.1134C128.375 88.1134 135.625 79.6113 135.625 69.1235C135.625 58.6356 128.375 50.1335 119.431 50.1335C110.488 50.1335 103.237 58.6356 103.237 69.1235C103.237 79.6113 110.488 88.1134 119.431 88.1134Z" fill="#FFB8B8"/>
<path d="M94.3949 189.96L142.047 195.046C137.893 178.106 134.086 161.226 137.189 144.406C141.129 129.391 141.495 121.073 131.102 114.001L124.084 95.6438L111.384 95.1022L105.191 93.1118C100.188 102.545 98.1411 113.726 99.4025 124.736C102.095 148.678 101.368 170.895 94.3949 189.96Z" fill="#091736"/>
<path d="M101.628 105.22L96.8348 79.4227C95.8347 73.3161 96.0856 67.0182 97.5669 61.0476C97.7283 60.4357 97.9227 59.8365 98.149 59.2537C99.4758 55.8629 101.562 52.9576 104.185 50.8469C106.808 48.7361 109.871 47.4991 113.046 47.2674C123.939 46.385 125.538 47.7317 125.932 48.3959C132.088 48.1044 136.861 50.8931 139.039 56.0537C139.252 56.566 139.367 57.1268 139.375 57.6968C139.384 58.2667 139.286 58.8319 139.088 59.3525C138.89 59.8732 138.597 60.3366 138.23 60.7101C137.862 61.0837 137.43 61.3582 136.962 61.5145C133.92 62.5431 129.644 63.6856 126.437 63.3496C120.009 72.3908 122.637 88.9559 129.159 98.8257L129.415 99.2136L122.954 100.766L115.445 88.5047C115.296 88.2621 115.081 88.0867 114.836 88.0077C114.59 87.9287 114.328 87.951 114.095 88.0709C113.862 88.1908 113.671 88.4009 113.554 88.6663C113.437 88.9316 113.401 89.2359 113.452 89.5285L115.732 102.515L101.628 105.22Z" fill="#2F2E41"/>
<path d="M451.864 343H0V341.667H452.07L451.864 343Z" fill="#CACACA"/>
<path d="M194.191 174.685L76.3308 272.42L48.0875 225.585L165.947 127.851L194.191 174.685Z" fill="white"/>
<path d="M87.8722 241.957C92.4867 238.131 93.5822 230.642 90.319 225.231C87.0558 219.82 80.6697 218.535 76.0552 222.362C71.4407 226.189 70.3452 233.677 73.6084 239.088C76.8715 244.499 83.2577 245.784 87.8722 241.957Z" fill="#091736"/>
<path d="M97.3214 209.626C96.9521 209.933 96.7016 210.398 96.6251 210.921C96.5487 211.444 96.6524 211.981 96.9136 212.414C97.1748 212.847 97.572 213.141 98.0178 213.231C98.4636 213.32 98.9216 213.199 99.2909 212.892L164.94 158.454C165.308 158.147 165.557 157.681 165.633 157.159C165.709 156.637 165.605 156.101 165.344 155.669C165.083 155.236 164.687 154.943 164.242 154.853C163.797 154.763 163.34 154.883 162.97 155.188L97.3214 209.626Z" fill="#E6E6E6"/>
<path d="M103.23 219.424C102.861 219.73 102.61 220.195 102.533 220.717C102.456 221.239 102.558 221.776 102.819 222.21C103.079 222.643 103.475 222.938 103.92 223.029C104.366 223.12 104.824 223 105.194 222.695L105.199 222.69L156.85 179.859C157.22 179.553 157.47 179.087 157.547 178.564C157.623 178.041 157.519 177.504 157.258 177.071C157.129 176.857 156.965 176.674 156.775 176.534C156.586 176.394 156.375 176.299 156.154 176.255C155.708 176.165 155.25 176.287 154.881 176.593L103.23 219.424Z" fill="#E6E6E6"/>
<path d="M194.191 174.685L76.3308 272.42L48.0875 225.585L165.947 127.851L194.191 174.685ZM77.0188 267.716L190.18 173.879L165.259 132.554L52.0983 226.392L77.0188 267.716Z" fill="#E6E6E6"/>
<path d="M463.311 157.333C463.729 157.314 464.146 157.398 464.535 157.578C464.904 157.751 465.239 158.012 465.518 158.345C465.798 158.679 466.017 159.077 466.161 159.515C466.313 159.979 466.382 160.474 466.364 160.97C466.348 161.48 466.247 161.98 466.067 162.444C465.892 162.9 465.647 163.314 465.346 163.667C465.046 164.018 464.695 164.302 464.309 164.505C463.916 164.711 463.493 164.825 463.064 164.839C462.645 164.854 462.229 164.766 461.841 164.581C461.473 164.405 461.141 164.142 460.864 163.808C460.586 163.473 460.37 163.075 460.228 162.638C460.079 162.175 460.012 161.682 460.03 161.189C460.047 160.682 460.148 160.184 460.327 159.722C460.501 159.271 460.743 158.861 461.042 158.511C461.339 158.16 461.688 157.876 462.071 157.672C462.462 157.465 462.883 157.35 463.311 157.333Z" fill="#F2F2F2"/>
<path d="M131.954 204.975L124.29 155.844L124.829 125.46L107.556 124.827L110.794 159.009L121.963 206.408C121.036 207.729 120.468 209.346 120.332 211.05C120.197 212.753 120.499 214.466 121.202 215.966C121.904 217.465 122.973 218.684 124.272 219.464C125.57 220.245 127.038 220.551 128.487 220.343C129.935 220.135 131.297 219.423 132.397 218.299C133.497 217.175 134.284 215.69 134.658 214.036C135.031 212.382 134.973 210.634 134.491 209.019C134.009 207.404 133.125 205.996 131.954 204.975H131.954Z" fill="#FFB8B8"/>
<path d="M106.476 127.992C112.734 125.197 119.651 125.197 125.909 127.992L124.829 102.672C124.829 101.342 124.606 100.025 124.172 98.7966C123.738 97.5678 123.102 96.4513 122.3 95.5108C121.498 94.5704 120.546 93.8243 119.498 93.3154C118.45 92.8064 117.327 92.5444 116.193 92.5444C115.058 92.5444 113.935 92.8064 112.887 93.3154C111.839 93.8243 110.887 94.5704 110.085 95.5108C109.283 96.4513 108.647 97.5678 108.213 98.7966C107.779 100.025 107.556 101.342 107.556 102.672L106.476 127.992Z" fill="#091736"/>
</g>
<defs>
<clipPath id="clip0_13_53">
<rect width="472" height="343" fill="white"/>
</clipPath>
</defs>
</svg>
