<svg width="501" height="409" viewBox="0 0 501 409" fill="none" xmlns="http://www.w3.org/2000/svg">
<g clip-path="url(#clip0_4_196)">
<path d="M378.417 325.703C377.045 314.048 376.683 302.238 377.336 290.483L378.417 271.03C372.462 285.977 373.808 305.651 378.417 325.703V325.703Z" fill="#CACACA"/>
<path d="M383.06 328.958C382.4 322.002 382.226 314.987 382.54 307.994L383.06 296.414C380.195 305.311 380.842 317.022 383.06 328.958Z" fill="#CACACA"/>
<path d="M403.7 343.279V349.787C403.698 350.304 403.534 350.8 403.244 351.165C402.954 351.531 402.562 351.737 402.152 351.74H399.572C399.504 351.74 399.437 351.756 399.375 351.789C399.312 351.822 399.255 351.869 399.207 351.93C399.159 351.99 399.121 352.062 399.095 352.141C399.069 352.221 399.056 352.305 399.056 352.391V405.763C399.054 406.28 398.891 406.775 398.601 407.141C398.311 407.506 397.918 407.713 397.509 407.716H366.037C365.626 407.715 365.233 407.509 364.942 407.143C364.652 406.777 364.489 406.281 364.489 405.763V352.391C364.488 352.218 364.434 352.053 364.337 351.931C364.24 351.809 364.109 351.741 363.973 351.74H360.877C360.467 351.74 360.073 351.534 359.783 351.168C359.493 350.802 359.33 350.305 359.329 349.787V343.279C359.329 343.022 359.369 342.768 359.447 342.531C359.524 342.294 359.638 342.078 359.782 341.897C359.926 341.716 360.097 341.572 360.285 341.474C360.472 341.376 360.674 341.326 360.877 341.326H402.152C402.562 341.328 402.955 341.534 403.245 341.9C403.535 342.265 403.699 342.761 403.7 343.279Z" fill="#F2F2F2"/>
<path d="M399.103 353.107H364.535V355.059H399.103V353.107Z" fill="#E6E6E6"/>
<path d="M399.056 381.84C387.489 387.879 375.796 387.945 363.973 381.84V368.083C375.355 363.261 387.674 363.261 399.056 368.083V381.84Z" fill="#E6E6E6"/>
<path d="M232.935 162.968C243.306 162.968 251.713 152.362 251.713 139.278C251.713 126.195 243.306 115.589 232.935 115.589C222.564 115.589 214.157 126.195 214.157 139.278C214.157 152.362 222.564 162.968 232.935 162.968Z" fill="#2F2E41"/>
<path d="M238.167 116.241C241.416 116.242 244.61 117.306 247.437 119.33C250.263 121.355 252.624 124.269 254.29 127.789C255.956 131.309 256.869 135.315 256.94 139.413C257.011 143.512 256.239 147.564 254.697 151.173C256.325 148.604 257.511 145.634 258.179 142.455C258.847 139.275 258.982 135.954 258.577 132.705C258.172 129.455 257.234 126.348 255.824 123.581C254.414 120.814 252.563 118.447 250.388 116.633C248.213 114.818 245.762 113.595 243.192 113.041C240.622 112.487 237.988 112.615 235.459 113.416C232.93 114.218 230.561 115.675 228.503 117.695C226.445 119.715 224.744 122.254 223.506 125.149C225.262 122.369 227.491 120.125 230.03 118.582C232.568 117.04 235.349 116.24 238.167 116.241Z" fill="#2F2E41"/>
<path d="M197.846 139.228C228.31 139.228 253.006 108.073 253.006 69.6412C253.006 31.2094 228.31 0.0541992 197.846 0.0541992C167.382 0.0541992 142.686 31.2094 142.686 69.6412C142.686 108.073 167.382 139.228 197.846 139.228Z" fill="#2F2E41"/>
<path d="M154.554 26.4658C164.059 12.981 177.345 4.68213 191.608 3.32081C205.87 1.95948 219.995 7.64218 230.999 19.1695C230.548 18.6286 230.102 18.0833 229.633 17.5577C218.698 5.30507 204.354 -0.967635 189.754 0.118793C175.154 1.20522 161.494 9.56183 151.777 23.3512C142.06 37.1406 137.082 55.2339 137.937 73.6528C138.792 92.0717 145.41 109.308 156.336 121.573C156.805 122.098 157.286 122.594 157.765 123.095C147.401 110.658 141.274 93.6284 140.674 75.5995C140.075 57.5706 145.052 39.9533 154.554 26.4658Z" fill="#2F2E41"/>
<path d="M197.379 138.639C216.999 138.639 232.905 118.573 232.905 93.8198C232.905 69.0671 216.999 49.001 197.379 49.001C177.758 49.001 161.852 69.0671 161.852 93.8198C161.852 118.573 177.758 138.639 197.379 138.639Z" fill="#FFB8B8"/>
<path d="M215.527 150.806L177.509 152.962C177.509 152.962 180.682 177.765 160.114 180.124C139.546 182.483 120.847 175.407 113.368 193.098C105.889 210.79 109.112 273.785 109.112 273.785C109.112 273.785 123.136 337.475 134.355 346.91C145.574 356.346 243.74 343.372 243.74 343.372L284.823 277.93L283.432 227.462C282.705 201.107 263.632 181.32 243.089 186.197C242.685 186.293 242.279 186.396 241.87 186.506C241.87 186.506 237.357 182.251 224.975 174.441C217.402 169.664 215.527 150.806 215.527 150.806Z" fill="#CACACA"/>
<path d="M133.001 178.945C133.001 178.945 142.037 199.628 138.297 229.115C134.558 258.601 150.249 320.963 150.249 320.963L161.468 317.424C161.468 317.424 153.988 256.093 155.858 241.94C157.728 227.787 158.244 186.022 148.895 178.945C139.546 171.868 133.001 178.945 133.001 178.945Z" fill="#2F2E41"/>
<path d="M241.212 189.79L245.142 320.373L252.622 326.27C252.622 326.27 263.373 182.968 257.764 182.968H246.35C245.674 182.968 245.005 183.136 244.381 183.462C243.757 183.788 243.19 184.266 242.712 184.869C242.235 185.471 241.856 186.187 241.597 186.974C241.339 187.762 241.206 188.605 241.206 189.458C241.206 189.568 241.208 189.679 241.212 189.79Z" fill="#2F2E41"/>
<path d="M155.391 318.014C157.972 318.014 160.065 315.374 160.065 312.117C160.065 308.86 157.972 306.22 155.391 306.22C152.809 306.22 150.716 308.86 150.716 312.117C150.716 315.374 152.809 318.014 155.391 318.014Z" fill="#091736"/>
<path d="M248.882 323.911C251.464 323.911 253.557 321.271 253.557 318.014C253.557 314.757 251.464 312.117 248.882 312.117C246.3 312.117 244.207 314.757 244.207 318.014C244.207 321.271 246.3 323.911 248.882 323.911Z" fill="#091736"/>
<path d="M166.994 37.7959V82.6147H175.221L185.692 68.4614L184.29 82.6147H220.658L218.414 68.4614L222.902 82.6147H228.698V37.7959H166.994Z" fill="#2F2E41"/>
<path d="M161.384 90.8712C162.933 90.8712 164.189 87.9669 164.189 84.3843C164.189 80.8016 162.933 77.8973 161.384 77.8973C159.835 77.8973 158.58 80.8016 158.58 84.3843C158.58 87.9669 159.835 90.8712 161.384 90.8712Z" fill="#FFB8B8"/>
<path d="M233.373 90.8712C234.922 90.8712 236.178 87.9669 236.178 84.3843C236.178 80.8016 234.922 77.8973 233.373 77.8973C231.824 77.8973 230.568 80.8016 230.568 84.3843C230.568 87.9669 231.824 90.8712 233.373 90.8712Z" fill="#FFB8B8"/>
<path d="M311.187 396.025V399.975C311.189 401.06 311.03 402.135 310.718 403.145C310.579 403.595 310.412 404.031 310.217 404.447C309.602 405.749 308.73 406.827 307.685 407.576C306.641 408.324 305.46 408.717 304.258 408.717H73.8674C72.666 408.717 71.4851 408.324 70.4404 407.576C69.3958 406.827 68.5232 405.749 67.9083 404.447C67.7138 404.031 67.5464 403.595 67.4079 403.145C67.0959 402.135 66.9366 401.06 66.9384 399.975V396.025C66.9381 394.877 67.1171 393.74 67.465 392.68C67.8129 391.62 68.3229 390.656 68.966 389.844C69.609 389.033 70.3726 388.389 71.2129 387.949C72.0533 387.51 72.954 387.284 73.8637 387.283H87.1476V385.441C87.1475 385.393 87.1549 385.346 87.1693 385.302C87.1838 385.258 87.205 385.218 87.2317 385.184C87.2584 385.15 87.2902 385.123 87.3252 385.105C87.3601 385.086 87.3977 385.077 87.4355 385.077H94.3655C94.442 385.077 94.5154 385.115 94.5696 385.183C94.6238 385.251 94.6543 385.344 94.6544 385.44V387.283H98.9831V385.441C98.983 385.393 98.9904 385.346 99.0049 385.302C99.0193 385.258 99.0405 385.218 99.0673 385.184C99.094 385.15 99.1258 385.123 99.1607 385.105C99.1957 385.086 99.2332 385.077 99.2711 385.077H106.201C106.278 385.077 106.351 385.115 106.405 385.183C106.459 385.251 106.49 385.344 106.49 385.44V387.283H110.824V385.441C110.824 385.393 110.831 385.346 110.846 385.302C110.86 385.258 110.881 385.218 110.908 385.184C110.935 385.15 110.966 385.123 111.001 385.105C111.036 385.086 111.074 385.077 111.112 385.077H118.042C118.118 385.077 118.192 385.115 118.246 385.183C118.3 385.251 118.331 385.344 118.331 385.44V387.283H122.659V385.441C122.659 385.393 122.667 385.346 122.681 385.302C122.696 385.258 122.717 385.218 122.744 385.184C122.77 385.15 122.802 385.123 122.837 385.105C122.872 385.086 122.909 385.077 122.947 385.077H129.877C129.954 385.077 130.027 385.115 130.081 385.183C130.136 385.251 130.166 385.344 130.166 385.44V387.283H134.495V385.441C134.495 385.393 134.502 385.346 134.517 385.302C134.531 385.258 134.552 385.218 134.579 385.184C134.606 385.15 134.638 385.123 134.673 385.105C134.708 385.086 134.745 385.077 134.783 385.077H141.713C141.789 385.077 141.863 385.115 141.917 385.183C141.971 385.251 142.002 385.344 142.002 385.44V387.283H146.336V385.441C146.336 385.394 146.343 385.346 146.357 385.302C146.372 385.258 146.393 385.218 146.42 385.184C146.447 385.15 146.478 385.123 146.513 385.105C146.548 385.086 146.586 385.077 146.624 385.077H153.554C153.63 385.077 153.703 385.115 153.758 385.183C153.812 385.251 153.842 385.344 153.842 385.44V387.283H158.171V385.441C158.171 385.394 158.179 385.346 158.193 385.302C158.207 385.258 158.229 385.218 158.255 385.184C158.282 385.15 158.314 385.123 158.349 385.105C158.384 385.086 158.421 385.077 158.459 385.077H212.737C212.774 385.077 212.812 385.086 212.847 385.104C212.882 385.122 212.914 385.149 212.941 385.183C212.967 385.217 212.989 385.257 213.003 385.301C213.018 385.345 213.025 385.392 213.025 385.44V387.283H217.359V385.441C217.359 385.394 217.367 385.346 217.381 385.302C217.396 385.258 217.417 385.218 217.443 385.184C217.47 385.15 217.502 385.123 217.537 385.105C217.572 385.086 217.609 385.077 217.647 385.077H224.577C224.654 385.078 224.727 385.116 224.781 385.185C224.835 385.253 224.865 385.345 224.866 385.441V387.283H229.195V385.441C229.195 385.394 229.202 385.346 229.217 385.302C229.231 385.258 229.252 385.218 229.279 385.184C229.306 385.15 229.338 385.123 229.372 385.105C229.407 385.086 229.445 385.077 229.483 385.077H236.413C236.451 385.077 236.488 385.086 236.523 385.104C236.558 385.123 236.59 385.149 236.617 385.183C236.644 385.217 236.665 385.257 236.68 385.301C236.694 385.345 236.702 385.392 236.702 385.44V387.283H241.03V385.441C241.03 385.394 241.038 385.346 241.052 385.302C241.067 385.258 241.088 385.218 241.115 385.184C241.141 385.15 241.173 385.123 241.208 385.105C241.243 385.086 241.281 385.077 241.318 385.077H248.248C248.286 385.077 248.324 385.086 248.359 385.104C248.394 385.123 248.426 385.149 248.452 385.183C248.479 385.217 248.501 385.257 248.515 385.301C248.53 385.345 248.537 385.392 248.537 385.44V387.283H252.871V385.441C252.871 385.394 252.878 385.346 252.893 385.302C252.907 385.258 252.929 385.218 252.955 385.184C252.982 385.15 253.014 385.123 253.049 385.105C253.084 385.086 253.121 385.077 253.159 385.077H260.089C260.165 385.078 260.237 385.117 260.29 385.185C260.344 385.254 260.373 385.346 260.373 385.441V387.283H264.707V385.441C264.707 385.394 264.714 385.346 264.728 385.302C264.743 385.258 264.764 385.218 264.791 385.184C264.818 385.15 264.849 385.123 264.884 385.105C264.919 385.086 264.957 385.077 264.995 385.077H271.925C271.962 385.077 272 385.086 272.035 385.104C272.07 385.123 272.102 385.149 272.129 385.183C272.156 385.217 272.177 385.257 272.191 385.301C272.206 385.345 272.213 385.392 272.214 385.44V387.283H276.542V385.441C276.542 385.394 276.55 385.346 276.564 385.302C276.578 385.258 276.6 385.218 276.626 385.184C276.653 385.15 276.685 385.123 276.72 385.105C276.755 385.086 276.792 385.077 276.83 385.077H283.76C283.798 385.077 283.836 385.086 283.871 385.104C283.906 385.123 283.937 385.149 283.964 385.183C283.991 385.217 284.012 385.257 284.027 385.301C284.042 385.345 284.049 385.392 284.049 385.44V387.283H304.258C306.095 387.283 307.858 388.203 309.157 389.841C310.456 391.48 311.187 393.702 311.187 396.02L311.187 396.025Z" fill="#3F3D56"/>
<path d="M501 407.698H0V409H501V407.698Z" fill="#3F3D56"/>
<path d="M292.636 229.638H81.5955C80.8327 229.638 80.0774 229.827 79.3726 230.196C78.6679 230.564 78.0275 231.104 77.4881 231.784C76.9488 232.465 76.5209 233.272 76.229 234.161C75.9371 235.05 75.7868 236.003 75.7868 236.966V385.308C75.7868 387.252 76.3988 389.116 77.4881 390.49C78.5775 391.864 80.0549 392.636 81.5955 392.636H292.636C294.176 392.636 295.654 391.864 296.743 390.49C297.832 389.116 298.444 387.252 298.444 385.308V236.966C298.444 235.022 297.832 233.158 296.743 231.784C295.654 230.41 294.176 229.638 292.636 229.638Z" fill="#3F3D56"/>
<path d="M187.284 297.7C194.408 297.7 200.183 290.415 200.183 281.428C200.183 272.441 194.408 265.156 187.284 265.156C180.161 265.156 174.386 272.441 174.386 281.428C174.386 290.415 180.161 297.7 187.284 297.7Z" fill="#091736"/>
<path d="M267.132 173.927L332.246 91.1334H362.987V89.8317H331.816L331.664 90.025L266.399 173.012L267.132 173.927Z" fill="white"/>
<path d="M475.977 57.1421H400.535V65.623H475.977V57.1421Z" fill="white"/>
<path d="M391.341 70.9855H375.37V50.8372H391.341V70.9855ZM376.402 69.6837H390.309V52.1389H376.402L376.402 69.6837Z" fill="white"/>
<path d="M475.977 85.4116H400.535V93.8925H475.977V85.4116Z" fill="white"/>
<path d="M391.341 99.2549H375.37V79.1069H391.341V99.2549ZM376.402 97.9531H390.309V80.4086H376.402L376.402 97.9531Z" fill="white"/>
<path d="M475.977 113.681H400.535V122.162H475.977V113.681Z" fill="white"/>
<path d="M391.341 127.524H375.37V107.376H391.341V127.524ZM376.402 126.222H390.309V108.678H376.402L376.402 126.222Z" fill="white"/>
</g>
<defs>
<clipPath id="clip0_4_196">
<rect width="501" height="409" fill="white"/>
</clipPath>
</defs>
</svg>
